# xmcd
#
# Track frame offsets: 
#        150
#        11157
#        27124
#        45053
#        62656
#        74526
#        91716
#        105212
#        122355
#        134595
#        145785
#
# Disc length: 2102 seconds
#
# Revision: 0
# Processed by: cddbd v1.5.2PL0 Copyright (c) Steve Scherf et al.
# Submitted via: ExactAudioCopyFreeDBPlugin 1.0
#
DISCID=8308340b
DTITLE=Trisha Yearwood - ICON Christmas
DYEAR=2016
DGENRE=Country
TTITLE0=Let It Snow! Let It Snow! Let It Snow!
TTITLE1=An Angel Gets Its Wings (featuring Vince Gill)
TTITLE2=The Christmas Song (Chestnuts Roasting On An Open Fire)
TTITLE3=It Wasn't His Child
TTITLE4=Reindeer Boogie
TTITLE5=Take A Walk Through Bethlehem
TTITLE6=Santa Claus Is Back In Town
TTITLE7=I'll Be Home For Christmas
TTITLE8=Sweet Little Jesus Boy
TTITLE9=Have Yourself A Merry Little Christmas
TTITLE10=Away In A Manger
EXTD=
EXTT0=
EXTT1=
EXTT2=
EXTT3=
EXTT4=
EXTT5=
EXTT6=
EXTT7=
EXTT8=
EXTT9=
EXTT10=
PLAYORDER=
